<?xml version="1.0" encoding="UTF-8" standalone="no"?>
<!-- Created with Inkscape (http://www.inkscape.org/) -->

<svg
   xmlns:dc="http://purl.org/dc/elements/1.1/"
   xmlns:cc="http://creativecommons.org/ns#"
   xmlns:rdf="http://www.w3.org/1999/02/22-rdf-syntax-ns#"
   xmlns:svg="http://www.w3.org/2000/svg"
   xmlns="http://www.w3.org/2000/svg"
   xmlns:sodipodi="http://sodipodi.sourceforge.net/DTD/sodipodi-0.dtd"
   xmlns:inkscape="http://www.inkscape.org/namespaces/inkscape"
   id="svg2"
   version="1.1"
   inkscape:version="0.48.4 r9939"
   width="800"
   height="800"
   sodipodi:docname="Grape-symbol test3.svg">
  <metadata
     id="metadata8">
    <rdf:RDF>
      <cc:Work
         rdf:about="">
        <dc:format>image/svg+xml</dc:format>
        <dc:type
           rdf:resource="http://purl.org/dc/dcmitype/StillImage" />
        <dc:title />
      </cc:Work>
    </rdf:RDF>
  </metadata>
  <defs
     id="defs6">
    <linearGradient
       id="linearGradient3838">
      <stop
         id="stop3840"
         offset="0"
         style="stop-color:#ffffff;stop-opacity:1;" />
      <stop
         style="stop-color:#ffffff;stop-opacity:0"
         offset="0.01615444"
         id="stop3842" />
      <stop
         id="stop3844"
         offset="1"
         style="stop-color:#008000;stop-opacity:1;" />
    </linearGradient>
    <linearGradient
       id="linearGradient3828">
      <stop
         style="stop-color:#008000;stop-opacity:1;"
         offset="0"
         id="stop3830" />
      <stop
         style="stop-color:#008000;stop-opacity:0;"
         offset="1"
         id="stop3832" />
    </linearGradient>
    <linearGradient
       id="linearGradient3816">
      <stop
         style="stop-color:#ffffff;stop-opacity:1;"
         offset="0"
         id="stop3818" />
      <stop
         id="stop3846"
         offset="0.5"
         style="stop-color:#7f80bf;stop-opacity:1;" />
      <stop
         style="stop-color:#008000;stop-opacity:1;"
         offset="1"
         id="stop3820" />
    </linearGradient>
    <clipPath
       clipPathUnits="userSpaceOnUse"
       id="clipPath3881">
      <rect
         style="fill:none;stroke:#000000;stroke-opacity:1"
         id="rect3883"
         width="417.30112"
         height="189.08957"
         x="-1623.5621"
         y="1121.9078" />
    </clipPath>
  </defs>
  <sodipodi:namedview
     pagecolor="#ffffff"
     bordercolor="#666666"
     borderopacity="1"
     objecttolerance="10"
     gridtolerance="10"
     guidetolerance="10"
     inkscape:pageopacity="0"
     inkscape:pageshadow="2"
     inkscape:window-width="1366"
     inkscape:window-height="716"
     id="namedview4"
     showgrid="false"
     showguides="true"
     inkscape:guide-bbox="true"
     inkscape:zoom="0.17442514"
     inkscape:cx="-1218.9038"
     inkscape:cy="1018.594"
     inkscape:window-x="-8"
     inkscape:window-y="-8"
     inkscape:window-maximized="1"
     inkscape:current-layer="g3998" />
  <g
     id="g3998"
     transform="matrix(0.77675246,0,0,0.79329218,-1045.4385,1873.4554)">
    <path
       sodipodi:type="arc"
       style="fill:#a05ccc;fill-opacity:1;stroke:none"
       id="path3826-2"
       sodipodi:cx="507.49899"
       sodipodi:cy="389.28406"
       sodipodi:rx="168.44185"
       sodipodi:ry="171.70201"
       d="m 675.94084,389.28406 a 168.44185,171.70201 0 1 1 -336.8837,0 168.44185,171.70201 0 1 1 336.8837,0 z"
       transform="matrix(0.72835632,0,0,0.70661105,1388.7912,-2196.393)" />
    <path
       transform="matrix(0.72835632,0,0,0.70661105,1136.8819,-2336.69)"
       d="m 675.94084,389.28406 a 168.44185,171.70201 0 1 1 -336.8837,0 168.44185,171.70201 0 1 1 336.8837,0 z"
       sodipodi:ry="171.70201"
       sodipodi:rx="168.44185"
       sodipodi:cy="389.28406"
       sodipodi:cx="507.49899"
       id="path3856-6"
       style="fill:#a05ccc;fill-opacity:1;stroke:none"
       sodipodi:type="arc" />
    <path
       sodipodi:type="arc"
       style="fill:#a05ccc;fill-opacity:1;stroke:none"
       id="path3858-0"
       sodipodi:cx="507.49899"
       sodipodi:cy="389.28406"
       sodipodi:rx="168.44185"
       sodipodi:ry="171.70201"
       d="m 675.94084,389.28406 a 168.44185,171.70201 0 1 1 -336.8837,0 168.44185,171.70201 0 1 1 336.8837,0 z"
       transform="matrix(0.72835632,0,0,0.70661105,1136.8819,-2056.0958)" />
    <path
       transform="matrix(0.72835632,0,0,0.70661105,1136.8819,-1775.5018)"
       d="m 675.94084,389.28406 a 168.44185,171.70201 0 1 1 -336.8837,0 168.44185,171.70201 0 1 1 336.8837,0 z"
       sodipodi:ry="171.70201"
       sodipodi:rx="168.44185"
       sodipodi:cy="389.28406"
       sodipodi:cx="507.49899"
       id="path3860-4"
       style="fill:#a05ccc;fill-opacity:1;stroke:none"
       sodipodi:type="arc" />
    <path
       transform="matrix(0.72835632,0,0,0.70661105,1640.7005,-2056.0958)"
       d="m 675.94084,389.28406 a 168.44185,171.70201 0 1 1 -336.8837,0 168.44185,171.70201 0 1 1 336.8837,0 z"
       sodipodi:ry="171.70201"
       sodipodi:rx="168.44185"
       sodipodi:cy="389.28406"
       sodipodi:cx="507.49899"
       id="path3862-9"
       style="fill:#a05ccc;fill-opacity:1;stroke:none"
       sodipodi:type="arc" />
    <path
       transform="matrix(0.72835632,0,0,0.70661105,1388.7912,-1915.7988)"
       d="m 675.94084,389.28406 a 168.44185,171.70201 0 1 1 -336.8837,0 168.44185,171.70201 0 1 1 336.8837,0 z"
       sodipodi:ry="171.70201"
       sodipodi:rx="168.44185"
       sodipodi:cy="389.28406"
       sodipodi:cx="507.49899"
       id="path3864-4"
       style="fill:#a05ccc;fill-opacity:1;stroke:none"
       sodipodi:type="arc" />
    <path
       style="fill:#b57a25;fill-opacity:1;stroke:#b57925;stroke-width:20.2989769;stroke-miterlimit:4;stroke-opacity:1;stroke-dasharray:none"
       d="m 1863.2449,-2063.6892 c 4.2946,-26.2867 77.34,-106.1666 119.9231,-130.0034 -9.0134,-89.6757 -350.0895,-124.9894 -279.73,-128.3889 208.3245,-9.3153 464.1425,94.2096 584.0082,203.1737 65.1886,59.2606 90.1665,120.1294 45.4253,165.3316 -39.4467,39.8534 -67.7026,8.7842 -103.2882,-65.1416 -87.0571,-180.8544 -195.9222,-213.5444 -326.3354,-71.7599 -28.9831,31.5106 -44.0048,51.2824 -40.003,26.7885 z"
       id="path3885-6"
       inkscape:connector-curvature="0"
       sodipodi:nodetypes="sccsssss" />
  </g>
</svg>
